<?xml version="1.0" encoding="utf-8"?>
<!-- Generator: Adobe Illustrator 16.0.0, SVG Export Plug-In . SVG Version: 6.00 Build 0)  -->
<!DOCTYPE svg PUBLIC "-//W3C//DTD SVG 1.1//EN" "http://www.w3.org/Graphics/SVG/1.1/DTD/svg11.dtd">
<svg version="1.1" id="Layer_1" xmlns="http://www.w3.org/2000/svg" xmlns:xlink="http://www.w3.org/1999/xlink" x="0px" y="0px"
	 width="500px" height="500px" viewBox="0 0 500 500" enable-background="new 0 0 500 500" xml:space="preserve">
<circle fill="#BBBBBB" stroke="#000000" stroke-miterlimit="10" cx="250" cy="250" r="250"/>
<ellipse cx="250" cy="357" rx="150.332" ry="24"/>
<g>
	<path d="M175.359,228.582l-13.674-23.69c-5.564-9.063-9.063-14.946-12.4-21.146h-0.318c-3.021,6.201-6.042,11.925-11.607,21.306
		l-12.879,23.531h-15.898l32.752-54.218l-31.48-52.946h16.059l14.15,25.122c3.975,6.996,6.996,12.401,9.857,18.125h0.478
		c3.021-6.36,5.724-11.289,9.698-18.125l14.629-25.122h15.898l-32.594,52.151l33.389,55.013H175.359z"/>
</g>
<g>
	<path d="M375.359,228.582l-13.674-23.69c-5.564-9.063-9.063-14.946-12.4-21.146h-0.318c-3.021,6.201-6.042,11.925-11.607,21.306
		l-12.879,23.531h-15.898l32.752-54.218l-31.48-52.946h16.059l14.15,25.122c3.975,6.996,6.996,12.401,9.857,18.125h0.478
		c3.021-6.36,5.724-11.289,9.698-18.125l14.629-25.122h15.898l-32.594,52.151l33.389,55.013H375.359z"/>
</g>
</svg>
